<?xml version="1.0" standalone="no"?><!DOCTYPE svg PUBLIC "-//W3C//DTD SVG 1.1//EN" "http://www.w3.org/Graphics/SVG/1.1/DTD/svg11.dtd"><svg t="1589895741211" class="icon" viewBox="0 0 1024 1024" version="1.1" xmlns="http://www.w3.org/2000/svg" p-id="2701" xmlns:xlink="http://www.w3.org/1999/xlink" width="150" height="150"><defs><style type="text/css"></style></defs><path d="M158.35136 601.94816l316.80512 305.62304c9.76896 9.76896 22.85568 15.1552 36.84352 15.1552s27.07456-5.38624 36.57728-14.88896l317.48096-305.74592c28.54912-27.32032 121.71264-125.5424 121.71264-242.52416 0-159.31392-100.90496-258.27328-263.35232-258.27328-85.87264 0-165.45792 58.71616-212.39808 101.94944-46.94016-43.23328-126.52544-101.94944-212.39808-101.94944-162.44736 0-263.35232 98.97984-263.35232 258.27328-0.04096 134.59456 121.63072 242.01216 122.08128 242.3808z m141.25056-459.71456c80.77312 0 158.72 65.06496 198.00064 103.8336l14.39744 14.2336 14.39744-14.21312c39.28064-38.76864 117.248-103.8336 198.02112-103.8336 141.33248 0 222.39232 79.21664 222.39232 217.31328 0 100.7616-83.47648 188.45696-110.10048 213.9136l-316.8256 305.13152a11.10016 11.10016 0 0 1-7.8848 3.15392 11.38688 11.38688 0 0 1-8.15104-3.42016L186.04032 571.76064c-1.08544-0.96256-108.8512-98.87744-108.8512-212.21376 0-138.09664 81.05984-217.31328 222.4128-217.31328z" fill="#030303" p-id="2702"></path></svg>