<?xml version="1.0" standalone="no"?><!DOCTYPE svg PUBLIC "-//W3C//DTD SVG 1.1//EN" "http://www.w3.org/Graphics/SVG/1.1/DTD/svg11.dtd"><svg t="1589646123806" class="icon" viewBox="0 0 1024 1024" version="1.1" xmlns="http://www.w3.org/2000/svg" p-id="1109" xmlns:xlink="http://www.w3.org/1999/xlink" width="150" height="150"><defs><style type="text/css"></style></defs><path d="M191.7 874.3c-23.2 0-42-18.8-42-42V191.7c0-23.2 18.8-42 42-42h640.6c23.2 0 42 18.8 42 42v640.6c0 23.2-18.8 42-42 42H191.7z" fill="#F56E73" p-id="1110"></path><path d="M235.5 512a276.5 276.5 0 1 0 553 0 276.5 276.5 0 1 0-553 0Z" fill="#FCC66F" p-id="1111"></path><path d="M376.5 576c-35.3 0-64-28.7-64-64s28.7-64 64-64 64 28.7 64 64-28.7 64-64 64z" fill="#65C8FF" p-id="1112"></path><path d="M583.5 512a64 64 0 1 0 128 0 64 64 0 1 0-128 0Z" fill="#65C8FF" p-id="1113"></path><path d="M832.3 131.7H191.7c-33.1 0-60 26.9-60 60v640.6c0 33.1 26.9 60 60 60h640.6c33.1 0 60-26.9 60-60V191.7c0-33.1-26.9-60-60-60z m24 700.6c0 13.3-10.7 24-24 24H191.7c-13.3 0-24-10.7-24-24V191.7c0-13.3 10.7-24 24-24h640.6c13.3 0 24 10.7 24 24v640.6z" fill="#453B56" p-id="1114"></path><path d="M512 217.5c-162.4 0-294.5 132.1-294.5 294.5S349.6 806.5 512 806.5 806.5 674.4 806.5 512 674.4 217.5 512 217.5z m0 553c-142.8 0-258.5-115.7-258.5-258.5S369.2 253.5 512 253.5 770.5 369.2 770.5 512 654.8 770.5 512 770.5z" fill="#453B56" p-id="1115"></path><path d="M376.5 430c-45.2 0-82 36.8-82 82s36.8 82 82 82 82-36.8 82-82-36.8-82-82-82z m0 128c-25.4 0-46-20.6-46-46s20.6-46 46-46 46 20.6 46 46-20.6 46-46 46zM565.5 512c0 45.2 36.8 82 82 82s82-36.8 82-82-36.8-82-82-82-82 36.8-82 82z m128 0c0 25.4-20.6 46-46 46s-46-20.6-46-46 20.6-46 46-46 46 20.6 46 46z" fill="#453B56" p-id="1116"></path><path d="M512 623.4m-18 0a18 18 0 1 0 36 0 18 18 0 1 0-36 0Z" fill="#453B56" p-id="1117"></path><path d="M512 364.6c-9.9 0-18 8.1-18 18v183.5c0 9.9 8.1 18 18 18s18-8.1 18-18V382.6c0-9.9-8.1-18-18-18z" fill="#453B56" p-id="1118"></path></svg>